<svg xmlns="http://www.w3.org/2000/svg" viewBox="0 0 1200 675" role="img"><rect width="1200" height="675" fill="#c9dcef"/><rect y="320" width="1200" height="355" fill="#547746"/><g fill="#284b2c"><circle cx="120" cy="260" r="120"/><circle cx="1080" cy="250" r="130"/><circle cx="250" cy="245" r="95"/><circle cx="930" cy="235" r="105"/></g><path d="M430 675 C445 560 490 450 545 330 L675 330 C730 450 775 560 790 675Z" fill="#9a9a94"/><path d="M450 675 C470 565 505 465 560 335" fill="none" stroke="#b8b8b2" stroke-width="10"/><path d="M770 675 C750 565 715 465 660 335" fill="none" stroke="#b8b8b2" stroke-width="10"/><path d="M610 675 L610 335" stroke="#7d7d77" stroke-width="8" stroke-dasharray="24 18" opacity=".45"/><rect x="505" y="230" width="210" height="120" fill="#8b7a67"/><polygon points="480,235 610,155 740,235" fill="#4b4b4b"/><text x="55" y="625" font-family="Arial" font-size="34" font-weight="700" fill="#fff">AFTER — CLASS 5, CROWNED &amp; COMPACTED</text></svg>