<svg xmlns="http://www.w3.org/2000/svg" viewBox="0 0 1200 675" role="img" aria-labelledby="t d"><title id="t">Flower garden after installation</title><desc id="d">The same gray house, lawn, foundation and camera position with a curved mulched flower bed, stone edging, shrubs and flowers.</desc><defs><linearGradient id="sky" x2="0" y2="1"><stop stop-color="#b9d8ef"/><stop offset="1" stop-color="#eef5f8"/></linearGradient><linearGradient id="lawn" x2="0" y2="1"><stop stop-color="#7aa15f"/><stop offset="1" stop-color="#426d3f"/></linearGradient></defs><rect width="1200" height="675" fill="url(#sky)"/><rect y="390" width="1200" height="285" fill="url(#lawn)"/><rect x="125" y="175" width="730" height="300" rx="3" fill="#8b8e8f"/><polygon points="90,185 490,20 890,185" fill="#4d555a"/><rect x="205" y="260" width="145" height="135" fill="#d7e7ed" stroke="#3f4a4f" stroke-width="12"/><rect x="610" y="245" width="120" height="230" fill="#5b3929"/><rect x="120" y="470" width="745" height="35" fill="#c7c2b9"/><path d="M95 520 C250 465 620 470 865 535 C700 610 270 625 95 560Z" fill="#4a2d1f"/><path d="M90 520 C250 458 625 463 875 535" fill="none" stroke="#c7b28a" stroke-width="22"/><g fill="#305d32"><circle cx="220" cy="510" r="38"/><circle cx="390" cy="500" r="46"/><circle cx="575" cy="510" r="42"/><circle cx="750" cy="525" r="36"/></g><g><g fill="#f5d64e"><circle cx="285" cy="540" r="12"/><circle cx="305" cy="528" r="12"/><circle cx="325" cy="542" r="12"/></g><g fill="#d95673"><circle cx="470" cy="548" r="12"/><circle cx="490" cy="535" r="12"/><circle cx="510" cy="550" r="12"/></g><g fill="#7b5cc7"><circle cx="650" cy="558" r="12"/><circle cx="670" cy="545" r="12"/><circle cx="690" cy="558" r="12"/></g></g><g fill="#264b2b"><circle cx="980" cy="250" r="115"/><circle cx="1080" cy="320" r="100"/><rect x="1010" y="320" width="30" height="180" fill="#5b402b"/></g><text x="55" y="625" font-family="Arial,sans-serif" font-size="34" font-weight="700" fill="#fff">AFTER — CURVED PLANTING BED &amp; MULCH</text></svg>