<svg xmlns="http://www.w3.org/2000/svg" viewBox="0 0 1200 675" role="img"><rect width="1200" height="675" fill="#bad7ee"/><rect y="315" width="1200" height="360" fill="#6f9a54"/><g fill="#355f35"><circle cx="120" cy="250" r="115"/><circle cx="245" cy="210" r="105"/><circle cx="1040" cy="240" r="125"/><circle cx="900" cy="210" r="95"/></g><rect x="120" y="225" width="290" height="165" fill="#a79783"/><polygon points="95,235 265,120 435,235" fill="#56514c"/><path d="M420 470 Q610 390 810 470 Q705 590 470 570Z" fill="#4f8eac" stroke="#8b785c" stroke-width="28"/><path d="M770 405 Q825 380 850 430 Q820 470 770 470Z" fill="#74624d"/><path d="M795 405 Q820 430 795 468" fill="none" stroke="#e8f7ff" stroke-width="12"/><g fill="#8c7a61"><circle cx="430" cy="485" r="20"/><circle cx="470" cy="455" r="18"/><circle cx="735" cy="455" r="20"/><circle cx="785" cy="495" r="18"/></g><g fill="#6b4fb3"><circle cx="500" cy="430" r="12"/><circle cx="535" cy="420" r="12"/></g><text x="55" y="625" font-family="Arial" font-size="34" font-weight="700" fill="#fff">AFTER — LINED POND, STONE &amp; CIRCULATION</text></svg>