<svg xmlns="http://www.w3.org/2000/svg" viewBox="0 0 1200 700" role="img" aria-labelledby="t d"><title id="t">Conceptual northern Minnesota cabin front elevation</title><desc id="d">Single-story three bedroom cabin with simple gable roof, covered entry, durable siding, insulated windows and frost-protected foundation.</desc><rect width="1200" height="700" fill="#eaf0f3"/><rect y="520" width="1200" height="180" fill="#dce8dd"/><g transform="translate(120 110)" stroke="#0b1f34"><path d="M40 260L480 35l440 225" fill="#1f6b47" stroke-width="10"/><rect x="85" y="255" width="790" height="275" fill="#f2eadb" stroke-width="8"/><path d="M0 260L480 0l480 260" fill="none" stroke-width="12"/><rect x="390" y="355" width="180" height="175" fill="#76533d" stroke-width="6"/><rect x="150" y="330" width="150" height="115" fill="#b9d7e8" stroke-width="6"/><path d="M225 330v115M150 387h150" stroke-width="4"/><rect x="650" y="330" width="150" height="115" fill="#b9d7e8" stroke-width="6"/><path d="M725 330v115M650 387h150" stroke-width="4"/><path d="M330 350h300l-45-65H375z" fill="#0b1f34" stroke-width="5"/><path d="M355 350v180M605 350v180" stroke-width="7"/><rect x="335" y="530" width="290" height="42" fill="#8d6f52" stroke-width="5"/><path d="M85 530h790" stroke-width="12"/></g><g font-family="Arial,sans-serif" fill="#0b1f34"><text x="70" y="55" font-size="30" font-weight="700">Concept Front Elevation · Northwoods Cabin</text><text x="70" y="625" font-size="21">Simple 6:12 gable roof · durable lap siding · covered entry · insulated windows · slab-on-grade concept</text><text x="70" y="662" font-size="18">Concept only. Final elevations, structure, snow loads, foundation, energy details and permits require site-specific professional review.</text></g></svg>