<svg xmlns="http://www.w3.org/2000/svg" viewBox="0 0 800 500"><rect width="800" height="500" fill="#cce8fa"/><rect y="250" width="800" height="250" fill="#6ea84f"/><rect x="280" y="100" width="240" height="180" fill="#d4c2a5"/><polygon points="250,100 400,35 550,100" fill="#5c4a3f"/><circle cx="170" cy="160" r="95" fill="#3f7e3e"/><circle cx="630" cy="180" r="80" fill="#4b8745"/><path d="M0 390 Q200 340 400 390 T800 390" fill="none" stroke="#8db56f" stroke-width="35"/><g fill="none" stroke-width="8"><path d="M90 360 C220 300 300 320 400 370" stroke="#1769aa"/><path d="M400 370 C500 310 610 320 730 365" stroke="#8a3ffc"/><path d="M180 240 C250 270 310 270 380 240" stroke="#f39c12"/><path d="M430 245 C520 285 610 270 690 230" stroke="#d63031"/></g><g fill="#fff" stroke="#0e4a75" stroke-width="5"><circle cx="110" cy="350" r="10"/><circle cx="260" cy="325" r="10"/><circle cx="400" cy="370" r="10"/><circle cx="560" cy="330" r="10"/><circle cx="720" cy="360" r="10"/></g><g fill="none" stroke="#8fd3ff" stroke-width="3" opacity=".9"><path d="M110 350 q40 -60 80 0"/><path d="M260 325 q45 -65 90 0"/><path d="M400 370 q50 -70 100 0"/><path d="M560 330 q45 -65 90 0"/><path d="M720 360 q35 -55 70 0"/></g><text x="24" y="465" font-family="Arial" font-size="34" font-weight="700" fill="white">AFTER — FOUR ZONES, HEADS, VALVES, DRIP &amp; CONTROLLER</text></svg>