<svg xmlns="http://www.w3.org/2000/svg" width="1400" height="900" viewBox="0 0 1400 900"><defs><filter id="s"><feDropShadow dx="0" dy="16" stdDeviation="16" flood-color="#0f172a" flood-opacity=".18"/></filter></defs><rect width="1400" height="900" rx="34" fill="#f8fafc"/><rect x="40" y="32" width="1320" height="84" rx="24" fill="#111827"/><text x="76" y="82" font-family="Arial" font-size="32" font-weight="900" fill="#fff">Project Packet Lite — finished packet/report preview</text><text x="1060" y="82" font-family="Arial" font-size="16" font-weight="800" fill="#fed7aa">Hypothetical example</text><g filter="url(#s)"><rect x="78" y="150" width="360" height="600" rx="28" fill="#fff"/><rect x="108" y="184" width="300" height="110" rx="20" fill="#dbeafe"/><text x="138" y="232" font-family="Arial" font-size="24" font-weight="900" fill="#1e3a8a">Packet cover</text><text x="138" y="266" font-family="Arial" font-size="17" fill="#1e3a8a">Sample Garage Bay</text><rect x="108" y="330" width="300" height="330" rx="18" fill="#fffaf3" stroke="#d9c8b7"/><text x="138" y="372" font-family="Arial" font-size="20" font-weight="900" fill="#111827">Contents</text><text x="138" y="414" font-family="Arial" font-size="17" fill="#111827">01 Scope summary</text><text x="138" y="452" font-family="Arial" font-size="17" fill="#111827">02 Material groups</text><text x="138" y="490" font-family="Arial" font-size="17" fill="#111827">03 Build phases</text><text x="138" y="528" font-family="Arial" font-size="17" fill="#111827">04 Measurements needed</text><text x="138" y="566" font-family="Arial" font-size="17" fill="#111827">05 Review checklist</text></g><g filter="url(#s)"><rect x="488" y="150" width="854" height="600" rx="28" fill="#fff"/><rect x="528" y="188" width="774" height="58" rx="16" fill="#dbeafe"/><text x="558" y="225" font-family="Arial" font-size="24" font-weight="900" fill="#1e3a8a">Scope / Materials / Steps</text><rect x="528" y="286" width="240" height="300" rx="20" fill="#fff7ed" stroke="#fed7aa"/><text x="558" y="330" font-family="Arial" font-size="22" font-weight="900" fill="#7c2d12">Scope</text><text x="558" y="374" font-family="Arial" font-size="17" fill="#111827">• Clear one lane</text><text x="558" y="410" font-family="Arial" font-size="17" fill="#111827">• Define tool wall</text><text x="558" y="446" font-family="Arial" font-size="17" fill="#111827">• Stage projects</text><text x="558" y="482" font-family="Arial" font-size="17" fill="#111827">• Pick storage path</text><rect x="812" y="286" width="240" height="300" rx="20" fill="#f0fdf4" stroke="#86efac"/><text x="842" y="330" font-family="Arial" font-size="22" font-weight="900" fill="#14532d">Materials</text><text x="842" y="374" font-family="Arial" font-size="17" fill="#111827">• Tape labels</text><text x="842" y="410" font-family="Arial" font-size="17" fill="#111827">• Sort bins</text><text x="842" y="446" font-family="Arial" font-size="17" fill="#111827">• Wall shelves</text><text x="842" y="482" font-family="Arial" font-size="17" fill="#111827">• Tool wall</text><rect x="1096" y="286" width="206" height="300" rx="20" fill="#eef2ff" stroke="#c7d2fe"/><text x="1126" y="330" font-family="Arial" font-size="22" font-weight="900" fill="#3730a3">Steps</text><text x="1126" y="374" font-family="Arial" font-size="17" fill="#111827">1 Measure</text><text x="1126" y="410" font-family="Arial" font-size="17" fill="#111827">2 Clear lane</text><text x="1126" y="446" font-family="Arial" font-size="17" fill="#111827">3 Sort</text><text x="1126" y="482" font-family="Arial" font-size="17" fill="#111827">4 Review</text><rect x="528" y="626" width="774" height="62" rx="16" fill="#f0fdf4" stroke="#86efac"/><text x="558" y="665" font-family="Arial" font-size="18" font-weight="900" fill="#14532d">Rick Review Required / Owner Approval Required</text></g><text x="60" y="820" font-family="Arial" font-size="18" font-weight="900" fill="#7c2d12">Sample output — not customer work · Staged demo using sample information</text></svg>