<svg xmlns="http://www.w3.org/2000/svg" width="1400" height="900" viewBox="0 0 1400 900"><defs><filter id="s"><feDropShadow dx="0" dy="16" stdDeviation="16" flood-color="#0f172a" flood-opacity=".18"/></filter></defs><rect width="1400" height="900" rx="34" fill="#f8fafc"/><rect x="40" y="32" width="1320" height="84" rx="24" fill="#111827"/><text x="76" y="82" font-family="Arial" font-size="32" font-weight="900" fill="#fff">Cleanup Rescue Pack — before / after folder system</text><text x="1048" y="82" font-family="Arial" font-size="16" font-weight="800" fill="#fed7aa">Hypothetical example</text><g filter="url(#s)"><rect x="58" y="150" width="612" height="600" rx="28" fill="#fff"/><rect x="92" y="188" width="544" height="58" rx="16" fill="#fee2e2"/><text x="122" y="225" font-family="Arial" font-size="24" font-weight="900" fill="#991b1b">Before: scattered inputs</text><text x="118" y="292" font-family="Arial" font-size="20" fill="#111827">📁 Downloads</text><text x="160" y="328" font-family="Arial" font-size="17" fill="#6b7280">IMG_4421.jpg</text><text x="160" y="360" font-family="Arial" font-size="17" fill="#6b7280">garage note final final.txt</text><text x="118" y="416" font-family="Arial" font-size="20" fill="#111827">📁 Phone screenshots</text><text x="160" y="452" font-family="Arial" font-size="17" fill="#6b7280">measuremaybe.png</text><text x="160" y="484" font-family="Arial" font-size="17" fill="#6b7280">old layout idea.png</text><text x="118" y="540" font-family="Arial" font-size="20" fill="#111827">📁 Random</text><text x="160" y="576" font-family="Arial" font-size="17" fill="#6b7280">quote-draft-old.pdf</text><text x="160" y="608" font-family="Arial" font-size="17" fill="#6b7280">parts list maybe.xlsx</text></g><g filter="url(#s)"><rect x="730" y="150" width="612" height="600" rx="28" fill="#fff"/><rect x="764" y="188" width="544" height="58" rx="16" fill="#dcfce7"/><text x="794" y="225" font-family="Arial" font-size="24" font-weight="900" fill="#14532d">After: review-ready structure</text><text x="790" y="292" font-family="Arial" font-size="20" fill="#111827">📁 01 Photos</text><text x="832" y="328" font-family="Arial" font-size="17" fill="#14532d">garage-before-01.jpg</text><text x="790" y="378" font-family="Arial" font-size="20" fill="#111827">📁 02 Measurements</text><text x="832" y="414" font-family="Arial" font-size="17" fill="#14532d">wall-door-outlets-notes.pdf</text><text x="790" y="464" font-family="Arial" font-size="20" fill="#111827">📁 03 Draft Deliverables</text><text x="832" y="500" font-family="Arial" font-size="17" fill="#14532d">problem-snapshot-draft.pdf</text><text x="790" y="550" font-family="Arial" font-size="20" fill="#111827">📁 04 Rick Review Needed</text><rect x="790" y="608" width="472" height="62" rx="16" fill="#f0fdf4" stroke="#86efac"/><text x="820" y="647" font-family="Arial" font-size="18" font-weight="900" fill="#14532d">Priority cleanup plan ready</text></g><text x="60" y="820" font-family="Arial" font-size="18" font-weight="900" fill="#7c2d12">Sample output — not customer work · Rick Review Required / Owner Approval Required</text></svg>