<svg xmlns="http://www.w3.org/2000/svg" width="1100" height="680" viewBox="0 0 1100 680" role="img" aria-labelledby="t d"><title id="t">Shop Flow Review finished output</title><desc id="d">A workflow map showing current bottlenecks and improved shop flow.</desc><defs><marker id="arr" markerWidth="10" markerHeight="10" refX="8" refY="5" orient="auto"><path d="M0 0L10 5L0 10Z" fill="#2563eb"/></marker><filter id="s"><feDropShadow dx="0" dy="14" stdDeviation="14" flood-color="#111827" flood-opacity=".16"/></filter></defs><rect width="1100" height="680" rx="28" fill="#fffaf3"/><rect x="34" y="26" width="1032" height="76" rx="18" fill="#0f172a"/><text x="64" y="72" font-family="Arial" font-size="28" font-weight="900" fill="#fff">Shop Flow Review — Bottlenecks to Improved Flow</text><text x="824" y="72" font-family="Arial" font-size="14" font-weight="800" fill="#fed7aa">Sample output — not customer work</text><g filter="url(#s)"><rect x="54" y="130" width="992" height="188" rx="22" fill="#fff"/><text x="84" y="176" font-family="Arial" font-size="22" font-weight="900" fill="#991b1b">Current bottlenecks</text><rect x="84" y="204" width="210" height="70" rx="14" fill="#fee2e2" stroke="#ef4444"/><text x="106" y="246" font-family="Arial" font-size="16" font-weight="900" fill="#991b1b">Parts in work lane</text><rect x="330" y="204" width="210" height="70" rx="14" fill="#fee2e2" stroke="#ef4444"/><text x="350" y="246" font-family="Arial" font-size="16" font-weight="900" fill="#991b1b">Tools not staged</text><rect x="576" y="204" width="210" height="70" rx="14" fill="#fee2e2" stroke="#ef4444"/><text x="596" y="246" font-family="Arial" font-size="16" font-weight="900" fill="#991b1b">No quality check</text><rect x="822" y="204" width="184" height="70" rx="14" fill="#fee2e2" stroke="#ef4444"/><text x="842" y="246" font-family="Arial" font-size="16" font-weight="900" fill="#991b1b">No pickup lane</text></g><g filter="url(#s)"><rect x="54" y="360" width="992" height="206" rx="22" fill="#fff"/><text x="84" y="404" font-family="Arial" font-size="22" font-weight="900" fill="#14532d">Improved flow map</text><g font-family="Arial" font-weight="900" font-size="15"><rect x="84" y="440" width="140" height="70" rx="14" fill="#dbeafe" stroke="#2563eb"/><text x="125" y="482" fill="#1e3a8a">Intake</text><line x1="224" y1="475" x2="284" y2="475" stroke="#2563eb" stroke-width="4" marker-end="url(#arr)"/><rect x="286" y="440" width="140" height="70" rx="14" fill="#dcfce7" stroke="#16a34a"/><text x="329" y="482" fill="#14532d">Sort</text><line x1="426" y1="475" x2="486" y2="475" stroke="#2563eb" stroke-width="4" marker-end="url(#arr)"/><rect x="488" y="440" width="140" height="70" rx="14" fill="#ffedd5" stroke="#ea580c"/><text x="526" y="482" fill="#7c2d12">Work Zone</text><line x1="628" y1="475" x2="688" y2="475" stroke="#2563eb" stroke-width="4" marker-end="url(#arr)"/><rect x="690" y="440" width="140" height="70" rx="14" fill="#ede9fe" stroke="#7c3aed"/><text x="712" y="482" fill="#4c1d95">Quality Check</text><line x1="830" y1="475" x2="890" y2="475" stroke="#2563eb" stroke-width="4" marker-end="url(#arr)"/><rect x="892" y="440" width="114" height="70" rx="14" fill="#cffafe" stroke="#0891b2"/><text x="923" y="482" fill="#155e75">Pickup</text></g></g><rect x="54" y="596" width="992" height="54" rx="16" fill="#f0fdf4" stroke="#86efac"/><text x="80" y="630" font-family="Arial" font-size="18" font-weight="900" fill="#14532d">Rick Review Required / Owner Approval Required</text></svg>