<svg xmlns="http://www.w3.org/2000/svg" width="1100" height="680" viewBox="0 0 1100 680" role="img" aria-labelledby="t d"><title id="t">Business Cleanup Starter finished output</title><desc id="d">A tracker, checklist, and dashboard result preview.</desc><defs><filter id="s"><feDropShadow dx="0" dy="14" stdDeviation="14" flood-color="#111827" flood-opacity=".16"/></filter></defs><rect width="1100" height="680" rx="28" fill="#fffaf3"/><rect x="34" y="26" width="1032" height="76" rx="18" fill="#0f172a"/><text x="64" y="72" font-family="Arial" font-size="28" font-weight="900" fill="#fff">Business Cleanup Starter — Tracker Dashboard</text><text x="824" y="72" font-family="Arial" font-size="14" font-weight="800" fill="#fed7aa">Sample output — not customer work</text><g filter="url(#s)"><rect x="58" y="128" width="984" height="452" rx="24" fill="#fff"/><rect x="88" y="162" width="924" height="54" rx="14" fill="#dbeafe"/><text x="114" y="197" font-family="Arial" font-size="23" font-weight="900" fill="#1e3a8a">Sample Garage Bay — Request / Quote / Files / Follow-up</text><g font-family="Arial" font-size="15"><rect x="88" y="250" width="924" height="48" fill="#e0f2fe"/><text x="110" y="280" font-weight="900" fill="#075985">Customer</text><text x="290" y="280" font-weight="900" fill="#075985">Product</text><text x="470" y="280" font-weight="900" fill="#075985">Quote</text><text x="620" y="280" font-weight="900" fill="#075985">Files</text><text x="805" y="280" font-weight="900" fill="#075985">Status</text><rect x="88" y="298" width="924" height="58" fill="#fff" stroke="#cbd5e1"/><text x="110" y="334" fill="#111827">Sample Garage Bay</text><text x="290" y="334" fill="#111827">Problem Snapshot</text><text x="470" y="334" fill="#111827">$79 draft</text><text x="620" y="334" fill="#111827">Photos + notes</text><text x="805" y="334" fill="#7c2d12" font-weight="900">Review Required</text><rect x="88" y="356" width="924" height="58" fill="#fff" stroke="#cbd5e1"/><text x="110" y="392" fill="#111827">Sample Garage Bay</text><text x="290" y="392" fill="#111827">Layout Snapshot</text><text x="470" y="392" fill="#111827">Need info</text><text x="620" y="392" fill="#111827">Measurements missing</text><text x="805" y="392" fill="#1e40af" font-weight="900">Need Info</text><rect x="88" y="414" width="924" height="58" fill="#fff" stroke="#cbd5e1"/><text x="110" y="450" fill="#111827">Follow-up</text><text x="290" y="450" fill="#111827">Gmail draft</text><text x="470" y="450" fill="#111827">Draft only</text><text x="620" y="450" fill="#111827">Reply prepared</text><text x="805" y="450" fill="#991b1b" font-weight="900">Not Sent</text></g><rect x="88" y="500" width="280" height="52" rx="14" fill="#f0fdf4" stroke="#86efac"/><text x="112" y="533" font-family="Arial" font-size="16" font-weight="900" fill="#14532d">Tracker row created</text><rect x="410" y="500" width="280" height="52" rx="14" fill="#fff7ed" stroke="#fed7aa"/><text x="434" y="533" font-family="Arial" font-size="16" font-weight="900" fill="#7c2d12">Draft quote not approved</text><rect x="732" y="500" width="280" height="52" rx="14" fill="#fee2e2" stroke="#fecaca"/><text x="756" y="533" font-family="Arial" font-size="16" font-weight="900" fill="#991b1b">Gmail draft not sent</text></g><rect x="58" y="606" width="984" height="50" rx="16" fill="#f0fdf4" stroke="#86efac"/><text x="84" y="638" font-family="Arial" font-size="18" font-weight="900" fill="#14532d">Rick Review Required / Owner Approval Required</text></svg>