<svg xmlns="http://www.w3.org/2000/svg" width="1400" height="900" viewBox="0 0 1400 900"><defs><marker id="arr" markerWidth="10" markerHeight="10" refX="8" refY="5" orient="auto"><path d="M0 0L10 5L0 10Z" fill="#2563eb"/></marker><filter id="s"><feDropShadow dx="0" dy="16" stdDeviation="16" flood-color="#0f172a" flood-opacity=".18"/></filter></defs><rect width="1400" height="900" rx="34" fill="#fffaf3"/><rect x="40" y="32" width="1320" height="84" rx="24" fill="#111827"/><text x="76" y="82" font-family="Arial" font-size="32" font-weight="900" fill="#fff">Shop Flow Review — bottlenecks to improved flow</text><text x="1050" y="82" font-family="Arial" font-size="16" font-weight="800" fill="#fed7aa">Sample output — not customer work</text><g filter="url(#s)"><rect x="58" y="150" width="1284" height="260" rx="28" fill="#fff"/><text x="92" y="196" font-family="Arial" font-size="24" font-weight="900" fill="#991b1b">Current flow problems from sample input</text><rect x="92" y="238" width="280" height="96" rx="18" fill="#fee2e2" stroke="#ef4444"/><text x="122" y="282" font-family="Arial" font-size="19" font-weight="900" fill="#991b1b">Parts in work lane</text><text x="122" y="314" font-family="Arial" font-size="15" fill="#991b1b">Stops vehicle/work movement</text><rect x="410" y="238" width="280" height="96" rx="18" fill="#fee2e2" stroke="#ef4444"/><text x="440" y="282" font-family="Arial" font-size="19" font-weight="900" fill="#991b1b">Tools not staged</text><text x="440" y="314" font-family="Arial" font-size="15" fill="#991b1b">Wasted search time</text><rect x="728" y="238" width="280" height="96" rx="18" fill="#fee2e2" stroke="#ef4444"/><text x="758" y="282" font-family="Arial" font-size="19" font-weight="900" fill="#991b1b">No quality check</text><text x="758" y="314" font-family="Arial" font-size="15" fill="#991b1b">Jobs leave unfinished</text><rect x="1046" y="238" width="250" height="96" rx="18" fill="#fee2e2" stroke="#ef4444"/><text x="1076" y="282" font-family="Arial" font-size="19" font-weight="900" fill="#991b1b">No pickup lane</text><text x="1076" y="314" font-family="Arial" font-size="15" fill="#991b1b">Finished items mixed in</text></g><g filter="url(#s)"><rect x="58" y="452" width="1284" height="290" rx="28" fill="#fff"/><text x="92" y="500" font-family="Arial" font-size="24" font-weight="900" fill="#14532d">Finished improved shop flow map</text><g font-family="Arial" font-weight="900" font-size="18"><rect x="96" y="552" width="160" height="86" rx="18" fill="#dbeafe" stroke="#2563eb" stroke-width="4"/><text x="143" y="604" fill="#1e3a8a">Intake</text><line x1="256" y1="595" x2="338" y2="595" stroke="#2563eb" stroke-width="5" marker-end="url(#arr)"/><rect x="342" y="552" width="160" height="86" rx="18" fill="#dcfce7" stroke="#16a34a" stroke-width="4"/><text x="391" y="604" fill="#14532d">Sort</text><line x1="502" y1="595" x2="584" y2="595" stroke="#2563eb" stroke-width="5" marker-end="url(#arr)"/><rect x="588" y="552" width="160" height="86" rx="18" fill="#ffedd5" stroke="#ea580c" stroke-width="4"/><text x="622" y="604" fill="#7c2d12">Work zone</text><line x1="748" y1="595" x2="830" y2="595" stroke="#2563eb" stroke-width="5" marker-end="url(#arr)"/><rect x="834" y="552" width="178" height="86" rx="18" fill="#ede9fe" stroke="#7c3aed" stroke-width="4"/><text x="872" y="604" fill="#4c1d95">QC check</text><line x1="1012" y1="595" x2="1094" y2="595" stroke="#2563eb" stroke-width="5" marker-end="url(#arr)"/><rect x="1098" y="552" width="160" height="86" rx="18" fill="#cffafe" stroke="#0891b2" stroke-width="4"/><text x="1148" y="604" fill="#155e75">Pickup</text></g><rect x="96" y="674" width="360" height="42" rx="12" fill="#f0fdf4"/><text x="118" y="701" font-family="Arial" font-size="16" font-weight="900" fill="#14532d">Separate active projects from stored items</text><rect x="500" y="674" width="330" height="42" rx="12" fill="#f0fdf4"/><text x="522" y="701" font-family="Arial" font-size="16" font-weight="900" fill="#14532d">Daily tools next to work zone</text><rect x="874" y="674" width="384" height="42" rx="12" fill="#f0fdf4"/><text x="896" y="701" font-family="Arial" font-size="16" font-weight="900" fill="#14532d">Final check before pickup</text></g><text x="60" y="820" font-family="Arial" font-size="18" font-weight="900" fill="#7c2d12">Hypothetical example · Rick Review Required / Owner Approval Required</text></svg>