<svg xmlns="http://www.w3.org/2000/svg" width="1100" height="680" viewBox="0 0 1100 680" role="img" aria-labelledby="t d"><title id="t">Basic Layout Snapshot finished output</title><desc id="d">Professional CAD style garage layout with zones, dimensions, and storage options.</desc><defs><pattern id="grid" width="30" height="30" patternUnits="userSpaceOnUse"><path d="M30 0H0V30" fill="none" stroke="#e5e7eb"/></pattern><filter id="s"><feDropShadow dx="0" dy="14" stdDeviation="14" flood-color="#111827" flood-opacity=".16"/></filter></defs><rect width="1100" height="680" rx="28" fill="#f8fafc"/><rect x="34" y="26" width="1032" height="76" rx="18" fill="#0f172a"/><text x="64" y="72" font-family="Arial" font-size="28" font-weight="900" fill="#fff">Basic Layout Snapshot — CAD-Style Output</text><text x="820" y="72" font-family="Arial" font-size="14" font-weight="800" fill="#fed7aa">Hypothetical example</text><g filter="url(#s)"><rect x="54" y="128" width="710" height="432" rx="22" fill="#fff"/><rect x="88" y="166" width="640" height="332" fill="url(#grid)" stroke="#111827" stroke-width="4"/><rect x="126" y="208" width="250" height="150" rx="10" fill="#dbeafe" stroke="#0284c7" stroke-width="4"/><text x="180" y="288" font-family="Arial" font-size="22" font-weight="900" fill="#075985">Vehicle Lane</text><rect x="415" y="208" width="130" height="95" rx="10" fill="#dcfce7" stroke="#16a34a" stroke-width="4"/><text x="438" y="260" font-family="Arial" font-size="18" font-weight="900" fill="#14532d">Tool Wall</text><rect x="415" y="330" width="130" height="95" rx="10" fill="#ffedd5" stroke="#ea580c" stroke-width="4"/><text x="438" y="382" font-family="Arial" font-size="18" font-weight="900" fill="#7c2d12">Sort Table</text><rect x="586" y="208" width="82" height="217" rx="10" fill="#ede9fe" stroke="#7c3aed" stroke-width="4"/><text x="620" y="404" font-family="Arial" font-size="18" font-weight="900" fill="#4c1d95" transform="rotate(-90 620 404)">Storage Options</text><line x1="88" y1="520" x2="728" y2="520" stroke="#111827" stroke-width="4"/><text x="320" y="548" font-family="Arial" font-size="18" font-weight="900" fill="#111827">28'-0&quot; long wall · confirm door track and outlets</text><line x1="62" y1="166" x2="62" y2="498" stroke="#111827" stroke-width="4"/><text x="22" y="342" font-family="Arial" font-size="17" font-weight="900" fill="#111827" transform="rotate(-90 22 342)">22'-0&quot; depth</text></g><g filter="url(#s)"><rect x="798" y="128" width="248" height="432" rx="22" fill="#fff"/><text x="826" y="176" font-family="Arial" font-size="21" font-weight="900" fill="#111827">Storage Options</text><rect x="826" y="210" width="192" height="72" rx="14" fill="#ede9fe" stroke="#7c3aed"/><text x="846" y="252" font-family="Arial" font-size="16" font-weight="800" fill="#4c1d95">A: Tall wall shelves</text><rect x="826" y="304" width="192" height="72" rx="14" fill="#dcfce7" stroke="#16a34a"/><text x="846" y="346" font-family="Arial" font-size="16" font-weight="800" fill="#14532d">B: Tool wall + bins</text><rect x="826" y="398" width="192" height="72" rx="14" fill="#ffedd5" stroke="#ea580c"/><text x="846" y="440" font-family="Arial" font-size="16" font-weight="800" fill="#7c2d12">C: Sort table zone</text></g><rect x="54" y="592" width="992" height="54" rx="16" fill="#f0fdf4" stroke="#86efac"/><text x="80" y="626" font-family="Arial" font-size="18" font-weight="900" fill="#14532d">Rick Review Required / Owner Approval Required</text></svg>