<svg xmlns="http://www.w3.org/2000/svg" width="1400" height="900" viewBox="0 0 1400 900"><defs><marker id="arr" markerWidth="10" markerHeight="10" refX="8" refY="5" orient="auto"><path d="M0 0L10 5L0 10Z" fill="#2563eb"/></marker><filter id="s"><feDropShadow dx="0" dy="16" stdDeviation="16" flood-color="#0f172a" flood-opacity=".18"/></filter></defs><rect width="1400" height="900" rx="34" fill="#fffaf3"/><rect x="40" y="32" width="1320" height="84" rx="24" fill="#111827"/><text x="76" y="82" font-family="Arial" font-size="32" font-weight="900" fill="#fff">Workflow Opportunity Snapshot — bottleneck report + draft system</text><text x="1040" y="82" font-family="Arial" font-size="16" font-weight="800" fill="#fed7aa">Sample output — not customer work</text><g filter="url(#s)"><rect x="58" y="150" width="1284" height="250" rx="28" fill="#fff"/><text x="92" y="198" font-family="Arial" font-size="24" font-weight="900" fill="#991b1b">Bottleneck report</text><rect x="92" y="240" width="360" height="92" rx="18" fill="#fee2e2" stroke="#ef4444"/><text x="122" y="282" font-family="Arial" font-size="20" font-weight="900" fill="#991b1b">Repeated intake sorting</text><text x="122" y="314" font-family="Arial" font-size="15" fill="#991b1b">Same questions retyped for every request</text><rect x="520" y="240" width="360" height="92" rx="18" fill="#fee2e2" stroke="#ef4444"/><text x="550" y="282" font-family="Arial" font-size="20" font-weight="900" fill="#991b1b">Manual reply writing</text><text x="550" y="314" font-family="Arial" font-size="15" fill="#991b1b">Follow-up takes too many steps</text><rect x="948" y="240" width="338" height="92" rx="18" fill="#fee2e2" stroke="#ef4444"/><text x="978" y="282" font-family="Arial" font-size="20" font-weight="900" fill="#991b1b">Unclear gate</text><text x="978" y="314" font-family="Arial" font-size="15" fill="#991b1b">Needs review stop before send</text></g><g filter="url(#s)"><rect x="58" y="450" width="1284" height="300" rx="28" fill="#fff"/><text x="92" y="500" font-family="Arial" font-size="24" font-weight="900" fill="#14532d">Recommended draft workflow</text><g font-family="Arial" font-weight="900" font-size="17"><rect x="92" y="560" width="170" height="86" rx="18" fill="#dbeafe" stroke="#2563eb" stroke-width="4"/><text x="130" y="612" fill="#1e3a8a">Form input</text><line x1="262" y1="603" x2="342" y2="603" stroke="#2563eb" stroke-width="5" marker-end="url(#arr)"/><rect x="346" y="560" width="170" height="86" rx="18" fill="#dcfce7" stroke="#16a34a" stroke-width="4"/><text x="384" y="612" fill="#14532d">Tracker row</text><line x1="516" y1="603" x2="596" y2="603" stroke="#2563eb" stroke-width="5" marker-end="url(#arr)"/><rect x="600" y="560" width="170" height="86" rx="18" fill="#ffedd5" stroke="#ea580c" stroke-width="4"/><text x="638" y="612" fill="#7c2d12">Draft output</text><line x1="770" y1="603" x2="850" y2="603" stroke="#2563eb" stroke-width="5" marker-end="url(#arr)"/><rect x="854" y="560" width="170" height="86" rx="18" fill="#ede9fe" stroke="#7c3aed" stroke-width="4"/><text x="894" y="612" fill="#4c1d95">Gmail draft</text><line x1="1024" y1="603" x2="1104" y2="603" stroke="#2563eb" stroke-width="5" marker-end="url(#arr)"/><rect x="1108" y="560" width="170" height="86" rx="18" fill="#f0fdf4" stroke="#16a34a" stroke-width="4"/><text x="1150" y="592" fill="#14532d">Rick/user</text><text x="1165" y="620" fill="#14532d">review</text></g><rect x="92" y="684" width="360" height="44" rx="14" fill="#ecfeff"/><text x="116" y="712" font-family="Arial" font-size="16" font-weight="900" fill="#155e75">Estimated time saved: 2.5 hrs/week</text><rect x="500" y="684" width="340" height="44" rx="14" fill="#ecfeff"/><text x="524" y="712" font-family="Arial" font-size="16" font-weight="900" fill="#155e75">Draft-only automation path</text><rect x="888" y="684" width="390" height="44" rx="14" fill="#ecfeff"/><text x="912" y="712" font-family="Arial" font-size="16" font-weight="900" fill="#155e75">No customer reply before approval</text></g><text x="60" y="820" font-family="Arial" font-size="18" font-weight="900" fill="#7c2d12">Hypothetical example · Rick Review Required / Owner Approval Required</text></svg>