<svg xmlns="http://www.w3.org/2000/svg" width="1600" height="1000" viewBox="0 0 1600 1000"><defs><filter id="shadow"><feDropShadow dx="0" dy="18" stdDeviation="18" flood-color="#000" flood-opacity=".35"/></filter><linearGradient id="bg" x1="0" y1="0" x2="1" y2="1"><stop stop-color="#020617"/><stop offset=".55" stop-color="#071426"/><stop offset="1" stop-color="#0f172a"/></linearGradient></defs><rect width="1600" height="1000" fill="url(#bg)"/><text x="800" y="62" text-anchor="middle" font-family="Arial" font-size="36" font-weight="900" fill="#f8fafc">Repeatable demo-product system</text><text x="800" y="105" text-anchor="middle" font-family="Arial" font-size="22" font-weight="800" fill="#93c5fd">Sample input becomes finished draft deliverables, then stops for approval.</text><text x="800" y="143" text-anchor="middle" font-family="Arial" font-size="17" font-weight="900" fill="#bfdbfe">Rick Review Required → Owner Approval Required → Then build.</text><g filter="url(#shadow)"><rect x="35" y="175" width="760" height="260" rx="22" fill="#071426" stroke="#1e3a8a"/><text x="62" y="210" font-family="Arial" font-size="20" font-weight="900" fill="#bae6fd">1) Problem Snapshot — finished product preview</text><rect x="62" y="238" width="310" height="170" rx="10" fill="#111827"/><rect x="82" y="258" width="270" height="120" rx="8" fill="#6b4f2a"/><rect x="105" y="318" width="70" height="45" fill="#92400e"/><rect x="190" y="300" width="82" height="63" fill="#7c2d12"/><rect x="285" y="316" width="45" height="47" fill="#b45309"/><text x="217" y="395" text-anchor="middle" font-family="Arial" font-size="12" font-weight="900" fill="#e0f2fe">Customer input photo</text><text x="392" y="326" font-family="Arial" font-size="34" fill="#cbd5e1">→</text><rect x="445" y="238" width="240" height="170" rx="10" fill="#f8fafc"/><text x="470" y="272" font-family="Arial" font-size="17" font-weight="900" fill="#0f172a">Problem Snapshot Report</text><line x1="470" y1="288" x2="655" y2="288" stroke="#94a3b8"/><text x="470" y="320" font-family="Arial" font-size="12" fill="#111827">Key observations</text><text x="470" y="346" font-family="Arial" font-size="12" fill="#111827">• Cluttered zones</text><text x="470" y="370" font-family="Arial" font-size="12" fill="#111827">• First next step</text><rect x="705" y="255" width="65" height="55" rx="8" fill="#0b1220" stroke="#2563eb"/><text x="737" y="278" text-anchor="middle" font-family="Arial" font-size="12" fill="#bfdbfe">Rick</text><text x="737" y="294" text-anchor="middle" font-family="Arial" font-size="12" fill="#bfdbfe">Review</text><rect x="705" y="330" width="65" height="55" rx="8" fill="#0b1220" stroke="#2563eb"/><text x="737" y="353" text-anchor="middle" font-family="Arial" font-size="12" fill="#bfdbfe">Owner</text><text x="737" y="369" text-anchor="middle" font-family="Arial" font-size="12" fill="#bfdbfe">Approval</text></g><g filter="url(#shadow)"><rect x="815" y="175" width="750" height="260" rx="22" fill="#071426" stroke="#1e3a8a"/><text x="842" y="210" font-family="Arial" font-size="20" font-weight="900" fill="#bae6fd">2) Basic Layout — floor plan with zones</text><rect x="850" y="238" width="210" height="170" rx="10" fill="#111827"/><rect x="875" y="265" width="160" height="95" fill="#6b4f2a"/><text x="955" y="393" text-anchor="middle" font-family="Arial" font-size="12" font-weight="900" fill="#e0f2fe">Input from snapshot</text><text x="1082" y="326" font-family="Arial" font-size="34" fill="#cbd5e1">→</text><rect x="1140" y="238" width="300" height="170" rx="10" fill="#f8fafc"/><rect x="1184" y="280" width="210" height="110" fill="#ddd6c9" stroke="#111827"/><rect x="1184" y="280" width="70" height="38" fill="#bfdbfe"/><rect x="1254" y="280" width="70" height="38" fill="#fed7aa"/><rect x="1324" y="280" width="70" height="38" fill="#bbf7d0"/><text x="1290" y="348" text-anchor="middle" font-family="Arial" font-size="15" font-weight="900" fill="#111827">Open Floor</text><rect x="1460" y="255" width="75" height="55" rx="8" fill="#0b1220" stroke="#2563eb"/><text x="1497" y="278" text-anchor="middle" font-family="Arial" font-size="12" fill="#bfdbfe">Rick</text><text x="1497" y="294" text-anchor="middle" font-family="Arial" font-size="12" fill="#bfdbfe">Review</text><rect x="1460" y="330" width="75" height="55" rx="8" fill="#0b1220" stroke="#2563eb"/><text x="1497" y="353" text-anchor="middle" font-family="Arial" font-size="12" fill="#bfdbfe">Owner</text><text x="1497" y="369" text-anchor="middle" font-family="Arial" font-size="12" fill="#bfdbfe">Approval</text></g><g filter="url(#shadow)"><rect x="35" y="455" width="500" height="220" rx="22" fill="#071426" stroke="#1e3a8a"/><text x="62" y="490" font-family="Arial" font-size="19" font-weight="900" fill="#bae6fd">3) Shop Flow</text><rect x="76" y="520" width="180" height="110" fill="#f8fafc" rx="8"/><path d="M110 575 C160 525 225 535 235 595" stroke="#2563eb" stroke-width="5" fill="none"/><text x="310" y="574" font-family="Arial" font-size="22" fill="#cbd5e1">→</text><rect x="362" y="532" width="120" height="45" rx="8" fill="#0b1220" stroke="#2563eb"/><text x="422" y="560" text-anchor="middle" font-family="Arial" font-size="13" fill="#bfdbfe">Review gate</text></g><g filter="url(#shadow)"><rect x="555" y="455" width="500" height="220" rx="22" fill="#071426" stroke="#1e3a8a"/><text x="582" y="490" font-family="Arial" font-size="19" font-weight="900" fill="#bae6fd">4) Project Packet</text><rect x="620" y="520" width="210" height="110" rx="8" fill="#f8fafc"/><text x="650" y="550" font-family="Arial" font-size="16" font-weight="900" fill="#111827">Project Packet</text><text x="650" y="582" font-family="Arial" font-size="12" fill="#111827">Scope • Materials • Steps</text><text x="865" y="574" font-family="Arial" font-size="22" fill="#cbd5e1">→</text><rect x="930" y="532" width="90" height="45" rx="8" fill="#0b1220" stroke="#2563eb"/><text x="975" y="560" text-anchor="middle" font-family="Arial" font-size="13" fill="#bfdbfe">Approval</text></g><g filter="url(#shadow)"><rect x="1075" y="455" width="490" height="220" rx="22" fill="#071426" stroke="#1e3a8a"/><text x="1102" y="490" font-family="Arial" font-size="19" font-weight="900" fill="#bae6fd">5) Business Cleanup</text><rect x="1130" y="520" width="210" height="110" rx="8" fill="#f8fafc"/><text x="1160" y="550" font-family="Arial" font-size="16" font-weight="900" fill="#111827">Business Cleanup Report</text><text x="1160" y="582" font-family="Arial" font-size="12" fill="#111827">Processes • Pricing • Systems</text><rect x="1390" y="532" width="110" height="45" rx="8" fill="#0b1220" stroke="#2563eb"/><text x="1445" y="560" text-anchor="middle" font-family="Arial" font-size="13" fill="#bfdbfe">Draft only</text></g><g filter="url(#shadow)"><rect x="35" y="695" width="760" height="210" rx="22" fill="#071426" stroke="#1e3a8a"/><text x="62" y="730" font-family="Arial" font-size="19" font-weight="900" fill="#bae6fd">6) Cleanup Rescue — urgent problem solving</text><rect x="86" y="760" width="170" height="95" rx="8" fill="#f8fafc"/><text x="110" y="790" font-family="Arial" font-size="13" font-weight="900" fill="#111827">Messy files</text><text x="292" y="816" font-family="Arial" font-size="30" fill="#cbd5e1">→</text><rect x="370" y="750" width="245" height="115" rx="8" fill="#f8fafc"/><text x="398" y="785" font-family="Arial" font-size="16" font-weight="900" fill="#111827">Cleanup Rescue Plan</text><text x="398" y="817" font-family="Arial" font-size="12" fill="#111827">Immediate actions • Stabilize</text><rect x="660" y="770" width="92" height="62" rx="8" fill="#0b1220" stroke="#2563eb"/><text x="706" y="797" text-anchor="middle" font-family="Arial" font-size="13" fill="#bfdbfe">Owner</text><text x="706" y="815" text-anchor="middle" font-family="Arial" font-size="13" fill="#bfdbfe">Approval</text></g><g filter="url(#shadow)"><rect x="815" y="695" width="750" height="210" rx="22" fill="#071426" stroke="#1e3a8a"/><text x="842" y="730" font-family="Arial" font-size="19" font-weight="900" fill="#bae6fd">7) Workflow Opportunity — improvements and growth</text><rect x="872" y="760" width="190" height="95" rx="8" fill="#f8fafc"/><text x="900" y="790" font-family="Arial" font-size="13" font-weight="900" fill="#111827">Current workflow</text><text x="1090" y="816" font-family="Arial" font-size="30" fill="#cbd5e1">→</text><rect x="1160" y="750" width="265" height="115" rx="8" fill="#f8fafc"/><text x="1190" y="785" font-family="Arial" font-size="16" font-weight="900" fill="#111827">Workflow Opportunity Report</text><text x="1190" y="817" font-family="Arial" font-size="12" fill="#111827">Save time • Improve quality</text><rect x="1450" y="770" width="80" height="62" rx="8" fill="#0b1220" stroke="#2563eb"/><text x="1490" y="797" text-anchor="middle" font-family="Arial" font-size="13" fill="#bfdbfe">Rick</text><text x="1490" y="815" text-anchor="middle" font-family="Arial" font-size="13" fill="#bfdbfe">Review</text></g><rect x="300" y="930" width="1000" height="42" rx="14" fill="#071426" stroke="#1e3a8a"/><text x="800" y="958" text-anchor="middle" font-family="Arial" font-size="17" font-weight="900" fill="#bfdbfe">Built-in approval gates protect quality. Rick reviews. Owner approves. Then build.</text></svg>