<svg xmlns="http://www.w3.org/2000/svg" width="1800" height="1120" viewBox="0 0 1800 1120" role="img" aria-labelledby="title desc">
  <title id="title">Highway 38 Solutions under 250 product samples and workflow proof</title>
  <desc id="desc">Detailed staged screenshot style proof board showing under 250 product outputs, functional workflow proof, Gmail draft proof, tracker capture, and final approval gate. Staged demo using sample information, not customer work.</desc>
  <defs>
    <linearGradient id="page" x1="0" y1="0" x2="1" y2="1"><stop offset="0" stop-color="#f8fbff"/><stop offset="1" stop-color="#fff7ed"/></linearGradient>
    <linearGradient id="dark" x1="0" y1="0" x2="1" y2="1"><stop offset="0" stop-color="#111827"/><stop offset="1" stop-color="#1f2937"/></linearGradient>
    <linearGradient id="paper" x1="0" y1="0" x2="0" y2="1"><stop offset="0" stop-color="#ffffff"/><stop offset="1" stop-color="#f8fafc"/></linearGradient>
    <filter id="shadow" x="-20%" y="-20%" width="140%" height="140%"><feDropShadow dx="0" dy="18" stdDeviation="14" flood-color="#0f172a" flood-opacity=".16"/></filter>
    <filter id="soft" x="-20%" y="-20%" width="140%" height="140%"><feDropShadow dx="0" dy="8" stdDeviation="8" flood-color="#334155" flood-opacity=".12"/></filter>
    <style>
      .font{font-family:Inter,Segoe UI,Arial,sans-serif}.xs{font-size:12px}.tiny{font-size:14px}.small{font-size:16px}.mid{font-size:20px}.big{font-size:39px}.huge{font-size:46px}.bold{font-weight:800}.heavy{font-weight:900}.darkText{fill:#0f172a}.muted{fill:#64748b}.orange{fill:#9a3412}.green{fill:#15803d}.blue{fill:#1e3a8a}.card{fill:#fff;stroke:#d7c3ad;stroke-width:1.5}.paperBox{fill:url(#paper);stroke:#cbd5e1;stroke-width:1.4}.screen{fill:url(#dark)}.safe{fill:#faf5ff;stroke:#c084fc;stroke-width:1}.ok{fill:#ecfdf5;stroke:#86efac;stroke-width:1.5}.warn{fill:#fff7ed;stroke:#fdba74;stroke-width:1.5}.gridLine{stroke:#e2e8f0;stroke-width:1}.arrow{stroke:#0f4c81;stroke-width:9;stroke-linecap:round;stroke-linejoin:round}.check{fill:#16a34a}.btn{fill:#063b73}.label{fill:#f3e8ff}.thin{stroke:#94a3b8;stroke-width:1}
    </style>
  </defs>

  <rect width="1800" height="1120" fill="url(#page)"/>
  <rect x="34" y="24" width="1732" height="1048" rx="34" fill="#ffffff" opacity=".76"/>

  <text x="42" y="64" class="font huge heavy darkText">Highway 38 Solutions — Under $250 Product Samples</text>
  <text x="42" y="104" class="font mid darkText">Real-looking staged outputs. Functional workflow proof. Final Rick/user approval required before customer-facing delivery.</text>
  <rect x="1122" y="32" width="286" height="74" rx="12" class="paperBox"/>
  <circle cx="1160" cy="69" r="22" fill="#dbeafe"/><path d="M1148 69 l8 8 l18 -22" fill="none" stroke="#1d4ed8" stroke-width="5" stroke-linecap="round"/>
  <text x="1195" y="61" class="font small heavy blue">RICK REVIEW REQUIRED</text>
  <text x="1195" y="86" class="font tiny darkText">Owner Approval Required</text>
  <text x="1442" y="58" class="font small darkText">System produces draft results internally.</text>
  <text x="1442" y="84" class="font small darkText">Final approval before delivery.</text>

  <!-- product cards -->
  <g transform="translate(34 142)">
    <!-- Problem Snapshot -->
    <rect width="246" height="452" rx="8" class="card" filter="url(#soft)"/>
    <rect x="14" y="14" width="218" height="258" rx="6" class="paperBox"/>
    <text x="28" y="48" class="font tiny heavy darkText">PROBLEM SNAPSHOT</text>
    <text x="28" y="70" class="font xs darkText">Sample Business</text>
    <line x1="28" y1="92" x2="218" y2="92" class="thin"/>
    <text x="28" y="122" class="font xs heavy darkText">TOP 3 PROBLEMS</text>
    <circle cx="37" cy="153" r="12" fill="#fde68a"/><text x="34" y="158" class="font xs heavy darkText">1</text><text x="58" y="150" class="font xs heavy darkText">Unclear Shop Workflow</text><text x="58" y="169" class="font xs muted">Jobs move with no clear process.</text>
    <circle cx="37" cy="199" r="12" fill="#fde68a"/><text x="34" y="204" class="font xs heavy darkText">2</text><text x="58" y="196" class="font xs heavy darkText">Estimating Inconsistency</text><text x="58" y="215" class="font xs muted">No standard estimate path.</text>
    <circle cx="37" cy="245" r="12" fill="#fde68a"/><text x="34" y="250" class="font xs heavy darkText">3</text><text x="58" y="242" class="font xs heavy darkText">Communication Gaps</text><text x="58" y="261" class="font xs muted">Follow-up gets lost.</text>
    <text x="14" y="322" class="font mid heavy darkText">Problem Snapshot</text>
    <text x="14" y="354" class="font small darkText">One-page view of biggest</text><text x="14" y="378" class="font small darkText">issues and first fixes.</text>
    <rect x="14" y="402" width="218" height="25" rx="8" class="label"/><text x="28" y="419" class="font xs heavy orange">Sample output — not customer work</text>
    <rect x="14" y="438" width="218" height="0"/>
  </g>

  <g transform="translate(304 142)">
    <!-- Basic Layout -->
    <rect width="246" height="452" rx="8" class="card" filter="url(#soft)"/>
    <rect x="14" y="14" width="218" height="258" rx="6" class="paperBox"/>
    <text x="28" y="42" class="font tiny heavy blue">SHOP LAYOUT SNAPSHOT</text>
    <rect x="44" y="65" width="142" height="162" fill="#fff" stroke="#94a3b8"/>
    <path d="M62 72v140M86 72v140M112 72v140M148 72v140M62 95h124M62 134h124M62 182h124" stroke="#475569" stroke-width="1" fill="none"/>
    <rect x="70" y="82" width="34" height="42" fill="#e2e8f0" stroke="#64748b"/><rect x="118" y="142" width="58" height="36" fill="#fed7aa" stroke="#64748b"/><circle cx="154" cy="99" r="14" fill="#bfdbfe" stroke="#64748b"/>
    <text x="28" y="242" class="font xs muted">Zones • measurements • flow notes</text>
    <text x="14" y="322" class="font mid heavy darkText">Basic Layout Snapshot</text>
    <text x="14" y="354" class="font small darkText">Simple visual layout with</text><text x="14" y="378" class="font small darkText">workflow zones and ideas.</text>
    <rect x="14" y="402" width="218" height="25" rx="8" class="label"/><text x="28" y="419" class="font xs heavy orange">Staged demo using sample info</text>
  </g>

  <g transform="translate(574 142)">
    <!-- Shop Flow -->
    <rect width="246" height="452" rx="8" class="card" filter="url(#soft)"/>
    <rect x="14" y="14" width="218" height="258" rx="6" class="paperBox"/>
    <text x="28" y="42" class="font tiny heavy blue">SHOP FLOW REVIEW</text>
    <text x="28" y="64" class="font xs darkText">Sample Shop</text>
    <g transform="translate(33 96)">
      <rect width="70" height="42" rx="5" fill="#dbeafe" stroke="#60a5fa"/><text x="11" y="25" class="font xs darkText">Inquiry</text><path d="M74 21h28" stroke="#334155"/><path d="M98 16l9 5-9 5" fill="#334155"/>
      <rect x="108" width="70" height="42" rx="5" fill="#dbeafe" stroke="#60a5fa"/><text x="128" y="25" class="font xs darkText">Quote</text>
      <path d="M143 49v34" stroke="#334155"/><path d="M138 78l5 9 5-9" fill="#334155"/>
      <rect x="108" y="92" width="70" height="42" rx="5" fill="#dcfce7" stroke="#22c55e"/><text x="122" y="117" class="font xs darkText">Ready</text>
      <path d="M102 113H74" stroke="#334155"/><path d="M79 108l-9 5 9 5" fill="#334155"/>
      <rect y="92" width="70" height="42" rx="5" fill="#fef3c7" stroke="#f59e0b"/><text x="9" y="117" class="font xs darkText">Build</text>
    </g>
    <text x="14" y="322" class="font mid heavy darkText">Shop Flow Review</text>
    <text x="14" y="354" class="font small darkText">Visual map of how jobs</text><text x="14" y="378" class="font small darkText">flow through the shop.</text>
    <rect x="14" y="402" width="218" height="25" rx="8" class="label"/><text x="28" y="419" class="font xs heavy orange">Hypothetical example</text>
  </g>

  <g transform="translate(844 142)">
    <!-- Project Packet -->
    <rect width="246" height="452" rx="8" class="card" filter="url(#soft)"/>
    <rect x="14" y="14" width="218" height="258" rx="6" class="paperBox"/>
    <rect x="14" y="14" width="218" height="10" fill="#0f4c81"/>
    <text x="28" y="58" class="font tiny heavy darkText">PROJECT PACKET LITE</text>
    <text x="28" y="82" class="font xs darkText">Client: Sample Customer</text><text x="28" y="102" class="font xs darkText">Date: July 6, 2026</text>
    <line x1="28" y1="128" x2="214" y2="128" class="thin"/>
    <text x="28" y="156" class="font xs heavy darkText">1. Project Overview</text><text x="44" y="178" class="font xs darkText">Build one small cabinet unit</text><text x="44" y="198" class="font xs darkText">in customer office.</text>
    <text x="28" y="226" class="font xs heavy darkText">2. Scope of Work</text><text x="44" y="248" class="font xs darkText">• Design • Materials • Build</text>
    <text x="14" y="322" class="font mid heavy darkText">Project Packet Lite</text>
    <text x="14" y="354" class="font small darkText">Short project summary</text><text x="14" y="378" class="font small darkText">and owner-use packet.</text>
    <rect x="14" y="402" width="218" height="25" rx="8" class="label"/><text x="28" y="419" class="font xs heavy orange">Sample output — not customer work</text>
  </g>

  <g transform="translate(1114 142)">
    <!-- Business Cleanup -->
    <rect width="246" height="452" rx="8" class="card" filter="url(#soft)"/>
    <rect x="14" y="14" width="218" height="258" rx="6" class="paperBox"/>
    <text x="28" y="48" class="font tiny heavy darkText">BUSINESS CLEANUP STARTER</text><text x="28" y="72" class="font xs darkText">Sample Business</text>
    <text x="28" y="110" class="font xs heavy darkText">QUICK CLEANUP CHECKLIST</text>
    <g transform="translate(28 132)">
      <rect width="176" height="104" fill="#fff" stroke="#cbd5e1"/>
      <line x1="0" y1="26" x2="176" y2="26" class="gridLine"/><line x1="0" y1="52" x2="176" y2="52" class="gridLine"/><line x1="0" y1="78" x2="176" y2="78" class="gridLine"/>
      <line x1="48" y1="0" x2="48" y2="104" class="gridLine"/><line x1="138" y1="0" x2="138" y2="104" class="gridLine"/>
      <text x="6" y="18" class="font xs heavy darkText">Area</text><text x="56" y="18" class="font xs heavy darkText">Task</text><text x="144" y="18" class="font xs heavy darkText">OK</text>
      <text x="6" y="44" class="font xs darkText">Files</text><text x="56" y="44" class="font xs darkText">Organize</text><rect x="148" y="34" width="12" height="12" fill="#dbeafe" stroke="#2563eb"/><path d="M150 40l4 4 8-10" fill="none" stroke="#2563eb" stroke-width="2"/>
      <text x="6" y="70" class="font xs darkText">Quotes</text><text x="56" y="70" class="font xs darkText">Template</text><rect x="148" y="60" width="12" height="12" fill="#dbeafe" stroke="#2563eb"/>
      <text x="6" y="96" class="font xs darkText">Jobs</text><text x="56" y="96" class="font xs darkText">Tracker</text><rect x="148" y="86" width="12" height="12" fill="#fff" stroke="#64748b"/>
    </g>
    <text x="14" y="322" class="font mid heavy darkText">Business Cleanup Starter</text>
    <text x="14" y="354" class="font small darkText">Checklist to clean up</text><text x="14" y="378" class="font small darkText">files, jobs, and quotes.</text>
    <rect x="14" y="402" width="218" height="25" rx="8" class="label"/><text x="28" y="419" class="font xs heavy orange">Sample output — not customer work</text>
  </g>

  <g transform="translate(1384 142)">
    <!-- Cleanup Rescue -->
    <rect width="246" height="452" rx="8" class="card" filter="url(#soft)"/>
    <rect x="14" y="14" width="218" height="258" rx="6" class="paperBox"/>
    <text x="28" y="48" class="font tiny heavy blue">CLEANUP RESCUE PACK</text><text x="28" y="72" class="font xs darkText">Sample Shop</text>
    <text x="28" y="110" class="font xs heavy darkText">PRIORITY CLEANUP PLAN</text>
    <g transform="translate(28 132)">
      <rect width="176" height="104" fill="#fff" stroke="#cbd5e1"/>
      <line x1="0" y1="26" x2="176" y2="26" class="gridLine"/><line x1="0" y1="52" x2="176" y2="52" class="gridLine"/><line x1="0" y1="78" x2="176" y2="78" class="gridLine"/>
      <line x1="58" y1="0" x2="58" y2="104" class="gridLine"/><line x1="134" y1="0" x2="134" y2="104" class="gridLine"/>
      <text x="6" y="18" class="font xs heavy darkText">Priority</text><text x="66" y="18" class="font xs heavy darkText">Task</text><text x="140" y="18" class="font xs heavy darkText">Impact</text>
      <text x="6" y="44" class="font xs darkText">High</text><text x="66" y="44" class="font xs darkText">Job data</text><text x="142" y="44" class="font xs darkText">High</text>
      <text x="6" y="70" class="font xs darkText">High</text><text x="66" y="70" class="font xs darkText">Folders</text><text x="142" y="70" class="font xs darkText">High</text>
      <text x="6" y="96" class="font xs darkText">Low</text><text x="66" y="96" class="font xs darkText">Archive</text><text x="142" y="96" class="font xs darkText">Low</text>
    </g>
    <text x="14" y="322" class="font mid heavy darkText">Cleanup Rescue Pack</text>
    <text x="14" y="354" class="font small darkText">Rescue plan for messy</text><text x="14" y="378" class="font small darkText">folders and records.</text>
    <rect x="14" y="402" width="218" height="25" rx="8" class="label"/><text x="28" y="419" class="font xs heavy orange">Sample output — not customer work</text>
  </g>

  <g transform="translate(1654 142)">
    <!-- Workflow -->
    <rect width="112" height="452" rx="8" class="card" filter="url(#soft)"/>
    <rect x="12" y="14" width="88" height="258" rx="6" class="paperBox"/>
    <text x="21" y="48" class="font xs heavy blue">WORKFLOW</text><text x="21" y="66" class="font xs heavy blue">SNAPSHOT</text>
    <circle cx="30" cy="114" r="8" class="check"/><path d="M26 114l3 3 7-8" fill="none" stroke="#fff" stroke-width="2"/><text x="44" y="119" class="font xs darkText">Auto</text>
    <circle cx="30" cy="152" r="8" class="check"/><path d="M26 152l3 3 7-8" fill="none" stroke="#fff" stroke-width="2"/><text x="44" y="157" class="font xs darkText">Draft</text>
    <circle cx="30" cy="190" r="8" class="check"/><path d="M26 190l3 3 7-8" fill="none" stroke="#fff" stroke-width="2"/><text x="44" y="195" class="font xs darkText">Review</text>
    <text x="14" y="322" class="font small heavy darkText">Workflow</text><text x="14" y="344" class="font small heavy darkText">Opportunity</text><text x="14" y="366" class="font small heavy darkText">Snapshot</text>
    <text x="14" y="402" class="font xs orange">Safe draft</text><text x="14" y="420" class="font xs orange">workflow</text>
  </g>

  <!-- workflow proof -->
  <text x="42" y="650" class="font mid heavy green">LIVE PROOF: Everything Works End-to-End</text>
  <g transform="translate(42 688)">
    <!-- Panel 1 -->
    <rect width="250" height="168" rx="8" class="paperBox" filter="url(#soft)"/><rect width="250" height="168" rx="8" fill="#020617" opacity=".92"/><rect x="0" y="0" width="250" height="24" fill="#111827"/><circle cx="16" cy="12" r="4" fill="#ef4444"/><circle cx="32" cy="12" r="4" fill="#f59e0b"/><circle cx="48" cy="12" r="4" fill="#22c55e"/>
    <text x="18" y="52" class="font tiny bold" fill="#fff">Highway 38 Solutions</text><text x="18" y="92" class="font mid heavy" fill="#fff">Systems. Workflows.</text><text x="18" y="119" class="font mid heavy" fill="#fff">Automation.</text><text x="18" y="146" class="font xs" fill="#e5e7eb">Homepage loads successfully.</text>
    <path d="M274 84h42" class="arrow"/><path d="M309 65l34 19-34 19" fill="#0f4c81"/>
    <!-- Panel 2 -->
    <rect x="352" width="250" height="168" rx="8" class="paperBox" filter="url(#soft)"/><rect x="370" y="20" width="214" height="128" fill="#fff" stroke="#cbd5e1"/><text x="382" y="45" class="font small heavy darkText">Sample Library</text><rect x="382" y="64" width="52" height="58" fill="#f8fafc" stroke="#cbd5e1"/><rect x="446" y="64" width="52" height="58" fill="#f8fafc" stroke="#cbd5e1"/><rect x="510" y="64" width="52" height="58" fill="#f8fafc" stroke="#cbd5e1"/><text x="382" y="140" class="font xs green">Sample page loads with outputs.</text>
    <path d="M626 84h42" class="arrow"/><path d="M661 65l34 19-34 19" fill="#0f4c81"/>
    <!-- Panel 3 form -->
    <rect x="704" width="190" height="168" rx="8" class="paperBox" filter="url(#soft)"/><text x="720" y="30" class="font small heavy darkText">Request a Sample</text><text x="720" y="55" class="font xs muted">Your Name</text><rect x="720" y="62" width="150" height="24" rx="4" fill="#fff" stroke="#cbd5e1"/><text x="728" y="79" class="font xs darkText">Rick Example</text><text x="720" y="105" class="font xs muted">Need help with?</text><rect x="720" y="112" width="150" height="24" rx="4" fill="#fff" stroke="#cbd5e1"/><text x="728" y="129" class="font xs darkText">Shop Workflow Review</text><rect x="720" y="144" width="150" height="18" rx="4" fill="#2563eb"/><text x="762" y="158" class="font xs" fill="#fff">Submit</text>
    <path d="M918 84h42" class="arrow"/><path d="M953 65l34 19-34 19" fill="#0f4c81"/>
    <!-- Panel 4 sheet -->
    <rect x="996" width="262" height="168" rx="8" class="paperBox" filter="url(#soft)"/><rect x="996" y="0" width="262" height="24" fill="#f1f5f9"/><text x="1010" y="17" class="font xs green">Highway 38 — New Requests</text><g transform="translate(1010 40)"><rect width="224" height="104" fill="#fff" stroke="#cbd5e1"/><line y1="24" x2="224" y2="24" class="gridLine"/><line y1="48" x2="224" y2="48" class="gridLine"/><line y1="72" x2="224" y2="72" class="gridLine"/><line x1="50" y2="104" class="gridLine"/><line x1="100" y2="104" class="gridLine"/><line x1="160" y2="104" class="gridLine"/><text x="6" y="17" class="font xs heavy darkText">Time</text><text x="56" y="17" class="font xs heavy darkText">Name</text><text x="106" y="17" class="font xs heavy darkText">Email</text><text x="166" y="17" class="font xs heavy darkText">Service</text><text x="6" y="42" class="font xs darkText">10:28</text><text x="56" y="42" class="font xs darkText">Rick</text><text x="106" y="42" class="font xs darkText">rick@</text><text x="166" y="42" class="font xs darkText">Flow</text></g>
    <path d="M1282 84h42" class="arrow"/><path d="M1317 65l34 19-34 19" fill="#0f4c81"/>
    <!-- Panel 5 Gmail -->
    <rect x="1360" width="250" height="168" rx="8" class="paperBox" filter="url(#soft)"/><text x="1378" y="30" class="font small heavy darkText">Gmail</text><rect x="1378" y="50" width="56" height="26" rx="10" fill="#e0f2fe"/><text x="1392" y="68" class="font xs blue">Drafts</text><rect x="1452" y="42" width="136" height="106" fill="#fff" stroke="#cbd5e1"/><text x="1462" y="61" class="font xs heavy darkText">New Sample Request</text><text x="1462" y="82" class="font xs darkText">Hi Rick,</text><text x="1462" y="102" class="font xs darkText">Thanks for your request.</text><text x="1462" y="122" class="font xs darkText">Draft only — not sent.</text>
    <path d="M1634 84h42" class="arrow"/><path d="M1669 65l34 19-34 19" fill="#0f4c81"/>
    <!-- Panel 6 approval -->
    <rect x="1708" width="52" height="168" rx="8" fill="#fef3c7" stroke="#fde68a" filter="url(#soft)"/><circle cx="1734" cy="58" r="16" fill="#a3a3a3"/><path d="M1718 85h32v25h-32z" fill="#0f4c81"/><text transform="translate(1720 136) rotate(-90)" class="font xs heavy darkText">APPROVAL REQUIRED</text>
  </g>

  <g transform="translate(42 898)">
    <circle cx="19" cy="19" r="13" class="check"/><path d="M13 19l5 5 10-13" fill="none" stroke="#fff" stroke-width="4"/>
    <text x="48" y="24" class="font small darkText">Homepage loads successfully.</text>
    <circle cx="342" cy="19" r="13" class="check"/><path d="M336 19l5 5 10-13" fill="none" stroke="#fff" stroke-width="4"/>
    <text x="371" y="24" class="font small darkText">Sample Library loads with real output previews.</text>
    <circle cx="766" cy="19" r="13" class="check"/><path d="M760 19l5 5 10-13" fill="none" stroke="#fff" stroke-width="4"/>
    <text x="795" y="24" class="font small darkText">Form submits and is captured in tracker.</text>
    <circle cx="1170" cy="19" r="13" class="check"/><path d="M1164 19l5 5 10-13" fill="none" stroke="#fff" stroke-width="4"/>
    <text x="1199" y="24" class="font small darkText">Gmail draft is created, not sent.</text>
    <circle cx="1510" cy="19" r="13" class="check"/><path d="M1504 19l5 5 10-13" fill="none" stroke="#fff" stroke-width="4"/>
    <text x="1539" y="24" class="font small darkText">Final approval required.</text>
  </g>

  <rect x="34" y="978" width="1732" height="78" rx="10" fill="#f1f5f9" stroke="#cbd5e1"/>
  <circle cx="82" cy="1017" r="22" fill="#c7d2fe"/><path d="M72 1017l8 8 17-21" fill="none" stroke="#3730a3" stroke-width="5"/>
  <text x="122" y="1027" class="font mid heavy blue">RICK/USER FINAL APPROVAL REQUIRED</text>
  <line x1="520" y1="994" x2="520" y2="1040" stroke="#cbd5e1"/>
  <text x="548" y="1009" class="font small darkText">All work is auto-prepared internally to save time and ensure consistency.</text>
  <text x="548" y="1035" class="font small darkText">Nothing is sent to customers until Rick gives final approval.</text>
  <text x="1216" y="1010" class="font small darkText">Your Data Stays Secure</text><text x="1450" y="1010" class="font small darkText">Save Time Every Week</text><text x="1450" y="1035" class="font small muted">Built to Help Shops Grow</text>
  <rect x="0" y="1082" width="1800" height="38" fill="#062a4f"/>
  <text x="660" y="1106" class="font small" fill="#fff">Highway 38 Solutions  |  Systems. Workflows. Automation. Built for Shops.</text>
</svg>
