<svg xmlns="http://www.w3.org/2000/svg" width="1600" height="1000" viewBox="0 0 1600 1000"><defs><filter id="s"><feDropShadow dx="0" dy="22" stdDeviation="20" flood-color="#0f172a" flood-opacity=".18"/></filter><linearGradient id="bg" x1="0" y1="0" x2="1" y2="1"><stop stop-color="#f8fafc"/><stop offset="1" stop-color="#ecfeff"/></linearGradient></defs><rect width="1600" height="1000" rx="36" fill="url(#bg)"/><rect x="52" y="42" width="1496" height="88" rx="24" fill="#0f172a"/><text x="88" y="95" font-family="Arial" font-size="34" font-weight="900" fill="#fff">Cleanup Rescue Pack — before / after file rescue</text><text x="1214" y="94" font-family="Arial" font-size="16" font-weight="900" fill="#fed7aa">Hypothetical example</text><g filter="url(#s)"><rect x="72" y="166" width="700" height="700" rx="30" fill="#fff"/><rect x="112" y="210" width="620" height="66" rx="18" fill="#fee2e2"/><text x="146" y="252" font-family="Arial" font-size="27" font-weight="900" fill="#991b1b">Before: scattered files</text><text x="142" y="330" font-family="Arial" font-size="22" fill="#111827">📁 Downloads</text><text x="188" y="372" font-family="Arial" font-size="18" fill="#6b7280">IMG_4421.jpg</text><text x="188" y="410" font-family="Arial" font-size="18" fill="#6b7280">garage-note-final-final.txt</text><text x="142" y="480" font-family="Arial" font-size="22" fill="#111827">📁 Phone screenshots</text><text x="188" y="522" font-family="Arial" font-size="18" fill="#6b7280">measuremaybe.png</text><text x="188" y="560" font-family="Arial" font-size="18" fill="#6b7280">old-layout-idea.png</text><text x="142" y="630" font-family="Arial" font-size="22" fill="#111827">📁 Random</text><text x="188" y="672" font-family="Arial" font-size="18" fill="#6b7280">quote-draft-old.pdf</text><text x="188" y="710" font-family="Arial" font-size="18" fill="#6b7280">parts-list-maybe.xlsx</text></g><g filter="url(#s)"><rect x="828" y="166" width="700" height="700" rx="30" fill="#fff"/><rect x="868" y="210" width="620" height="66" rx="18" fill="#dcfce7"/><text x="902" y="252" font-family="Arial" font-size="27" font-weight="900" fill="#14532d">After: review-ready structure</text><text x="898" y="326" font-family="Arial" font-size="22" fill="#111827">📁 01 Photos</text><text x="944" y="364" font-family="Arial" font-size="18" fill="#14532d">garage-before-01.jpg</text><text x="944" y="398" font-family="Arial" font-size="18" fill="#14532d">garage-before-02.jpg</text><text x="898" y="462" font-family="Arial" font-size="22" fill="#111827">📁 02 Measurements</text><text x="944" y="500" font-family="Arial" font-size="18" fill="#14532d">wall-door-outlets-notes.pdf</text><text x="898" y="564" font-family="Arial" font-size="22" fill="#111827">📁 03 Draft Deliverables</text><text x="944" y="602" font-family="Arial" font-size="18" fill="#14532d">problem-snapshot-draft.pdf</text><text x="898" y="666" font-family="Arial" font-size="22" fill="#111827">📁 04 Rick Review Needed</text><rect x="898" y="728" width="520" height="62" rx="18" fill="#f0fdf4" stroke="#86efac"/><text x="930" y="768" font-family="Arial" font-size="20" font-weight="900" fill="#14532d">Priority cleanup plan ready</text></g><text x="74" y="926" font-family="Arial" font-size="20" font-weight="900" fill="#7c2d12">Sample output — not customer work · Rick Review Required / Owner Approval Required</text></svg>