<svg xmlns="http://www.w3.org/2000/svg" width="1600" height="1000" viewBox="0 0 1600 1000"><defs><filter id="s"><feDropShadow dx="0" dy="22" stdDeviation="20" flood-color="#0f172a" flood-opacity=".18"/></filter><linearGradient id="bg" x1="0" y1="0" x2="1" y2="1"><stop stop-color="#fff7ed"/><stop offset="1" stop-color="#f8fafc"/></linearGradient></defs><rect width="1600" height="1000" rx="36" fill="url(#bg)"/><rect x="52" y="42" width="1496" height="88" rx="24" fill="#0f172a"/><text x="88" y="95" font-family="Arial" font-size="34" font-weight="900" fill="#fff">Business Cleanup Starter — dashboard-style finished output</text><text x="1184" y="94" font-family="Arial" font-size="16" font-weight="900" fill="#fed7aa">Sample output — not customer work</text><g filter="url(#s)"><rect x="64" y="160" width="1472" height="700" rx="30" fill="#fff"/><rect x="104" y="206" width="1392" height="66" rx="18" fill="#dbeafe"/><text x="140" y="248" font-family="Arial" font-size="27" font-weight="900" fill="#1e3a8a">Lead / quote / file / follow-up control panel</text><rect x="104" y="318" width="300" height="130" rx="22" fill="#ecfeff" stroke="#67e8f9"/><text x="138" y="366" font-family="Arial" font-size="21" font-weight="900" fill="#155e75">Request</text><text x="138" y="408" font-family="Arial" font-size="34" font-weight="900" fill="#155e75">Captured</text><rect x="444" y="318" width="300" height="130" rx="22" fill="#fff7ed" stroke="#fdba74"/><text x="478" y="366" font-family="Arial" font-size="21" font-weight="900" fill="#7c2d12">Quote</text><text x="478" y="408" font-family="Arial" font-size="34" font-weight="900" fill="#7c2d12">Draft</text><rect x="784" y="318" width="300" height="130" rx="22" fill="#f0fdf4" stroke="#86efac"/><text x="818" y="366" font-family="Arial" font-size="21" font-weight="900" fill="#14532d">Files</text><text x="818" y="408" font-family="Arial" font-size="34" font-weight="900" fill="#14532d">Sorted</text><rect x="1124" y="318" width="300" height="130" rx="22" fill="#fee2e2" stroke="#fecaca"/><text x="1158" y="366" font-family="Arial" font-size="21" font-weight="900" fill="#991b1b">Reply</text><text x="1158" y="408" font-family="Arial" font-size="34" font-weight="900" fill="#991b1b">Draft only</text><rect x="104" y="500" width="1392" height="238" rx="24" fill="#f8fafc" stroke="#cbd5e1"/><text x="140" y="548" font-family="Arial" font-size="24" font-weight="900" fill="#111827">Tracker output</text><rect x="140" y="580" width="1300" height="48" fill="#e0f2fe"/><text x="168" y="610" font-family="Arial" font-size="16" font-weight="900" fill="#075985">Customer</text><text x="390" y="610" font-family="Arial" font-size="16" font-weight="900" fill="#075985">Product</text><text x="650" y="610" font-family="Arial" font-size="16" font-weight="900" fill="#075985">Files</text><text x="890" y="610" font-family="Arial" font-size="16" font-weight="900" fill="#075985">Quote</text><text x="1130" y="610" font-family="Arial" font-size="16" font-weight="900" fill="#075985">Status</text><text x="168" y="680" font-family="Arial" font-size="18" fill="#111827">Sample Garage Bay</text><text x="390" y="680" font-family="Arial" font-size="18" fill="#111827">Problem Snapshot</text><text x="650" y="680" font-family="Arial" font-size="18" fill="#111827">Photos + notes</text><text x="890" y="680" font-family="Arial" font-size="18" fill="#111827">Draft amount</text><text x="1130" y="680" font-family="Arial" font-size="18" font-weight="900" fill="#7c2d12">Review Required</text><rect x="104" y="774" width="1392" height="58" rx="18" fill="#f0fdf4" stroke="#86efac"/><text x="140" y="812" font-family="Arial" font-size="20" font-weight="900" fill="#14532d">Rick Review Required / Owner Approval Required</text></g><text x="70" y="926" font-family="Arial" font-size="20" font-weight="900" fill="#7c2d12">Hypothetical example · Staged demo using sample information</text></svg>