<svg xmlns="http://www.w3.org/2000/svg" width="1600" height="1000" viewBox="0 0 1600 1000"><defs><marker id="a" markerWidth="12" markerHeight="12" refX="10" refY="6" orient="auto"><path d="M0 0L12 6L0 12Z" fill="#2563eb"/></marker><filter id="s"><feDropShadow dx="0" dy="22" stdDeviation="20" flood-color="#0f172a" flood-opacity=".18"/></filter></defs><rect width="1600" height="1000" rx="36" fill="#fff7ed"/><rect x="52" y="42" width="1496" height="88" rx="24" fill="#0f172a"/><text x="88" y="95" font-family="Arial" font-size="34" font-weight="900" fill="#fff">Workflow Opportunity Snapshot — bottleneck report plus system map</text><text x="1192" y="94" font-family="Arial" font-size="16" font-weight="900" fill="#fed7aa">Sample output — not customer work</text><g filter="url(#s)"><rect x="64" y="160" width="1472" height="292" rx="30" fill="#fff"/><text x="104" y="212" font-family="Arial" font-size="27" font-weight="900" fill="#991b1b">Bottleneck report</text><rect x="104" y="260" width="400" height="104" rx="22" fill="#fee2e2" stroke="#fca5a5"/><text x="138" y="304" font-family="Arial" font-size="21" font-weight="900" fill="#991b1b">Repeated intake sorting</text><text x="138" y="338" font-family="Arial" font-size="17" fill="#991b1b">same details copied into multiple places</text><rect x="600" y="260" width="400" height="104" rx="22" fill="#fee2e2" stroke="#fca5a5"/><text x="634" y="304" font-family="Arial" font-size="21" font-weight="900" fill="#991b1b">Manual reply writing</text><text x="634" y="338" font-family="Arial" font-size="17" fill="#991b1b">follow-up draft takes too many steps</text><rect x="1096" y="260" width="360" height="104" rx="22" fill="#fee2e2" stroke="#fca5a5"/><text x="1130" y="304" font-family="Arial" font-size="21" font-weight="900" fill="#991b1b">Unclear approval gate</text><text x="1130" y="338" font-family="Arial" font-size="17" fill="#991b1b">needs a hard stop before sending</text></g><g filter="url(#s)"><rect x="64" y="502" width="1472" height="356" rx="30" fill="#fff"/><text x="104" y="554" font-family="Arial" font-size="27" font-weight="900" fill="#14532d">Recommended draft-only workflow</text><g font-family="Arial" font-weight="900" font-size="17"><rect x="106" y="624" width="180" height="92" rx="20" fill="#dbeafe" stroke="#2563eb" stroke-width="4"/><text x="146" y="678" fill="#1e3a8a">Form input</text><line x1="286" y1="670" x2="388" y2="670" stroke="#2563eb" stroke-width="6" marker-end="url(#a)"/><rect x="396" y="624" width="180" height="92" rx="20" fill="#dcfce7" stroke="#16a34a" stroke-width="4"/><text x="436" y="678" fill="#14532d">Tracker row</text><line x1="576" y1="670" x2="678" y2="670" stroke="#2563eb" stroke-width="6" marker-end="url(#a)"/><rect x="686" y="624" width="190" height="92" rx="20" fill="#ffedd5" stroke="#ea580c" stroke-width="4"/><text x="722" y="678" fill="#7c2d12">Draft output</text><line x1="876" y1="670" x2="978" y2="670" stroke="#2563eb" stroke-width="6" marker-end="url(#a)"/><rect x="986" y="624" width="190" height="92" rx="20" fill="#ede9fe" stroke="#7c3aed" stroke-width="4"/><text x="1024" y="678" fill="#4c1d95">Gmail draft</text><line x1="1176" y1="670" x2="1278" y2="670" stroke="#2563eb" stroke-width="6" marker-end="url(#a)"/><rect x="1286" y="624" width="190" height="92" rx="20" fill="#f0fdf4" stroke="#16a34a" stroke-width="4"/><text x="1322" y="660" fill="#14532d">Rick/user</text><text x="1340" y="690" fill="#14532d">review</text></g><rect x="106" y="760" width="390" height="54" rx="16" fill="#ecfeff"/><text x="132" y="794" font-family="Arial" font-size="17" font-weight="900" fill="#155e75">Estimated time saved: 2.5 hrs/week</text><rect x="548" y="760" width="356" height="54" rx="16" fill="#ecfeff"/><text x="574" y="794" font-family="Arial" font-size="17" font-weight="900" fill="#155e75">Draft-only automation path</text><rect x="956" y="760" width="520" height="54" rx="16" fill="#ecfeff"/><text x="982" y="794" font-family="Arial" font-size="17" font-weight="900" fill="#155e75">No customer-facing delivery without approval</text></g><text x="70" y="926" font-family="Arial" font-size="20" font-weight="900" fill="#7c2d12">Hypothetical example · Rick Review Required / Owner Approval Required</text></svg>