<svg xmlns="http://www.w3.org/2000/svg" viewBox="0 0 1200 720"><rect width="1200" height="720" rx="34" fill="#111827"/><rect x="36" y="36" width="1128" height="648" rx="28" fill="#f8fafc"/><text x="70" y="96" font-family="Arial" font-size="34" font-weight="800" fill="#0f172a">Digital Setup Packet</text><text x="70" y="132" font-family="Arial" font-size="18" fill="#475569">Hypothetical sample: one-page site path, request form, tracker, and reply templates.</text><rect x="90" y="190" width="260" height="340" rx="22" fill="#0f172a"/><text x="155" y="250" font-family="Arial" font-size="28" fill="#fff">Page</text><rect x="470" y="190" width="260" height="340" rx="22" fill="#334155"/><text x="540" y="250" font-family="Arial" font-size="28" fill="#fff">Form</text><rect x="850" y="190" width="260" height="340" rx="22" fill="#0f172a"/><text x="905" y="250" font-family="Arial" font-size="28" fill="#fff">Tracker</text><path d="M360 360h100M740 360h100" stroke="#f97316" stroke-width="14" stroke-linecap="round"/><rect x="125" y="310" width="190" height="22" rx="11" fill="#94a3b8"/><rect x="125" y="355" width="150" height="22" rx="11" fill="#64748b"/><rect x="505" y="310" width="190" height="22" rx="11" fill="#cbd5e1"/><rect x="505" y="355" width="150" height="22" rx="11" fill="#94a3b8"/><rect x="885" y="310" width="190" height="22" rx="11" fill="#94a3b8"/><rect x="885" y="355" width="150" height="22" rx="11" fill="#64748b"/><text x="90" y="630" font-family="Arial" font-size="21" fill="#0f172a">Output: page copy, form fields, tracker statuses, confirmation email</text></svg>