<svg xmlns="http://www.w3.org/2000/svg" width="1200" height="675" viewBox="0 0 1200 675" role="img" aria-labelledby="title desc">
  <title id="title">Project Packet Lite staged screenshot preview</title>
  <desc id="desc">A realistic staged project packet dashboard with phases, materials, and owner checklist.</desc>
  <rect width="1200" height="675" rx="34" fill="#0f172a"/>
  <rect x="34" y="34" width="1132" height="607" rx="24" fill="#f8fafc"/>
  <text x="70" y="88" font-family="Inter,Segoe UI,Arial,sans-serif" font-size="28" font-weight="800" fill="#111827">Project Packet Lite · Garage Build Order</text>
  <text x="70" y="122" font-family="Inter,Segoe UI,Arial,sans-serif" font-size="15" fill="#64748b">Staged demo using sample information · not customer work</text>
  <rect x="70" y="160" width="320" height="390" rx="18" fill="#ffffff" stroke="#cbd5e1"/>
  <text x="98" y="202" font-family="Inter,Segoe UI,Arial,sans-serif" font-size="19" font-weight="800" fill="#111827">Input packet</text>
  <rect x="98" y="230" width="244" height="18" rx="9" fill="#cbd5e1"/>
  <rect x="98" y="266" width="190" height="18" rx="9" fill="#e2e8f0"/>
  <rect x="98" y="302" width="230" height="18" rx="9" fill="#e2e8f0"/>
  <rect x="98" y="360" width="244" height="112" rx="14" fill="#1e293b"/>
  <rect x="118" y="388" width="76" height="56" rx="8" fill="#64748b"/>
  <rect x="210" y="388" width="112" height="56" rx="8" fill="#94a3b8"/>
  <rect x="430" y="160" width="700" height="390" rx="18" fill="#ffffff" stroke="#cbd5e1"/>
  <text x="462" y="202" font-family="Inter,Segoe UI,Arial,sans-serif" font-size="19" font-weight="800" fill="#111827">Draft result</text>
  <rect x="462" y="235" width="190" height="240" rx="16" fill="#dbeafe" stroke="#2563eb"/>
  <text x="500" y="280" font-family="Inter,Segoe UI,Arial,sans-serif" font-size="18" font-weight="800" fill="#1e3a8a">Phase 1</text>
  <text x="500" y="315" font-family="Inter,Segoe UI,Arial,sans-serif" font-size="15" fill="#1e40af">Measure + clear</text>
  <rect x="680" y="235" width="190" height="240" rx="16" fill="#dcfce7" stroke="#16a34a"/>
  <text x="718" y="280" font-family="Inter,Segoe UI,Arial,sans-serif" font-size="18" font-weight="800" fill="#14532d">Phase 2</text>
  <text x="718" y="315" font-family="Inter,Segoe UI,Arial,sans-serif" font-size="15" fill="#166534">Sort + stage</text>
  <rect x="898" y="235" width="190" height="240" rx="16" fill="#ffedd5" stroke="#ea580c"/>
  <text x="936" y="280" font-family="Inter,Segoe UI,Arial,sans-serif" font-size="18" font-weight="800" fill="#7c2d12">Phase 3</text>
  <text x="936" y="315" font-family="Inter,Segoe UI,Arial,sans-serif" font-size="15" fill="#9a3412">Build + review</text>
  <rect x="462" y="505" width="205" height="16" rx="8" fill="#22c55e"/>
  <text x="690" y="519" font-family="Inter,Segoe UI,Arial,sans-serif" font-size="15" fill="#334155">Output: phases, material groups, missing-info list, owner checklist.</text>
</svg>
