<svg xmlns="http://www.w3.org/2000/svg" width="1200" height="675" viewBox="0 0 1200 675" role="img" aria-labelledby="title desc">
  <title id="title">Basic Layout Snapshot staged screenshot preview</title>
  <desc id="desc">A realistic staged layout dashboard showing garage zones, measurements, and first actions.</desc>
  <rect width="1200" height="675" rx="34" fill="#0f172a"/>
  <rect x="34" y="34" width="1132" height="607" rx="24" fill="#f8fafc"/>
  <text x="70" y="88" font-family="Inter,Segoe UI,Arial,sans-serif" font-size="28" font-weight="800" fill="#111827">Basic Layout Snapshot · Garage Zones</text>
  <text x="70" y="122" font-family="Inter,Segoe UI,Arial,sans-serif" font-size="15" fill="#64748b">Staged demo using sample information · not customer work</text>
  <rect x="70" y="160" width="300" height="390" rx="18" fill="#1e293b"/>
  <text x="92" y="198" font-family="Inter,Segoe UI,Arial,sans-serif" font-size="18" font-weight="800" fill="#f8fafc">Before notes</text>
  <rect x="94" y="225" width="112" height="92" rx="10" fill="#64748b"/>
  <rect x="222" y="225" width="112" height="92" rx="10" fill="#94a3b8"/>
  <rect x="94" y="335" width="240" height="24" rx="12" fill="#cbd5e1"/>
  <circle cx="130" cy="420" r="34" fill="#94a3b8"/>
  <rect x="182" y="394" width="152" height="52" rx="10" fill="#475569"/>
  <rect x="410" y="160" width="720" height="390" rx="18" fill="#ffffff" stroke="#cbd5e1"/>
  <text x="440" y="198" font-family="Inter,Segoe UI,Arial,sans-serif" font-size="18" font-weight="800" fill="#111827">Draft layout result</text>
  <rect x="450" y="235" width="630" height="250" rx="16" fill="#e2e8f0" stroke="#94a3b8"/>
  <rect x="485" y="270" width="180" height="175" rx="12" fill="#bae6fd" stroke="#0284c7"/>
  <text x="515" y="363" font-family="Inter,Segoe UI,Arial,sans-serif" font-size="18" font-weight="800" fill="#075985">Vehicle lane</text>
  <rect x="695" y="270" width="160" height="76" rx="10" fill="#bbf7d0" stroke="#16a34a"/>
  <text x="725" y="315" font-family="Inter,Segoe UI,Arial,sans-serif" font-size="17" font-weight="800" fill="#14532d">Tool wall</text>
  <rect x="695" y="370" width="160" height="75" rx="10" fill="#fed7aa" stroke="#ea580c"/>
  <text x="720" y="414" font-family="Inter,Segoe UI,Arial,sans-serif" font-size="17" font-weight="800" fill="#7c2d12">Sort table</text>
  <rect x="885" y="270" width="150" height="175" rx="10" fill="#ddd6fe" stroke="#7c3aed"/>
  <text x="918" y="363" font-family="Inter,Segoe UI,Arial,sans-serif" font-size="17" font-weight="800" fill="#4c1d95">Storage</text>
  <rect x="450" y="510" width="220" height="16" rx="8" fill="#22c55e"/>
  <text x="690" y="524" font-family="Inter,Segoe UI,Arial,sans-serif" font-size="15" fill="#334155">First move: mark vehicle lane, then measure wall + door clearance.</text>
</svg>
